<?xml version="1.0" encoding="UTF-8" standalone="no"?>
<!DOCTYPE svg PUBLIC "-//W3C//DTD SVG 1.1//EN" "http://www.w3.org/Graphics/SVG/1.1/DTD/svg11.dtd">
<svg width="100%" height="100%" viewBox="0 0 46 46" version="1.1" xmlns="http://www.w3.org/2000/svg" xmlns:xlink="http://www.w3.org/1999/xlink" xml:space="preserve" xmlns:serif="http://www.serif.com/" style="fill-rule:evenodd;clip-rule:evenodd;stroke-linejoin:round;stroke-miterlimit:2;">
    <path d="M43,46L3,46C1.3,46 0,44.7 0,43L0,3C0,1.3 1.3,0 3,0L43,0C44.7,0 46,1.3 46,3L46,43C46,44.7 44.7,46 43,46ZM44,10L2,10L2,43C2,43.6 2.4,44 3,44L43,44C43.6,44 44,43.6 44,43L44,10ZM23.7,39L22.4,39C21.4,39 20.6,38.3 20.4,37.4L20.3,36.6C19.6,36.4 18.9,36.1 18.2,35.7L17.6,36.1C16.8,36.6 15.7,36.5 15,35.9L14,35C13.3,34.3 13.2,33.2 13.8,32.4L14.2,31.8C13.8,31.1 13.5,30.5 13.3,29.7L12.5,29.6C11.5,29.4 10.9,28.6 10.9,27.6L10.9,26.3C10.9,25.3 11.6,24.5 12.5,24.3L13.3,24.2C13.5,23.5 13.8,22.8 14.2,22.1L13.8,21.5C13.3,20.7 13.3,19.6 14,18.9L15,18C15.7,17.3 16.8,17.2 17.6,17.8L18.2,18.2C18.9,17.8 19.5,17.5 20.3,17.3L20.4,16.5C20.6,15.5 21.4,14.9 22.4,14.9L23.7,14.9C24.7,14.9 25.5,15.6 25.7,16.5L25.8,17.3C26.5,17.5 27.2,17.8 27.9,18.2L28.5,17.8C29.3,17.3 30.4,17.4 31.1,18L32,19C32.7,19.7 32.8,20.8 32.2,21.6L31.8,22.2C32.2,22.9 32.5,23.5 32.7,24.3L33.5,24.4C34.5,24.6 35.1,25.4 35.1,26.4L35.1,27.7C35.1,28.7 34.4,29.5 33.5,29.7L32.7,29.8C32.5,30.5 32.2,31.2 31.8,31.9L32.2,32.5C32.7,33.3 32.7,34.4 32,35.1L31,36C30.3,36.7 29.2,36.8 28.4,36.2L27.8,35.8C27.1,36.2 26.5,36.5 25.7,36.7L25.6,37.5C25.5,38.3 24.6,39 23.7,39ZM23.7,37L23.7,38L23.7,37ZM18.1,33.4L18.7,33.8C19.5,34.3 20.4,34.7 21.3,34.9L22,35L22.4,37L23.7,37L24.1,35L24.8,34.9C25.7,34.7 26.6,34.3 27.4,33.8L28,33.4L29.7,34.6L30.6,33.7L29.4,32L29.8,31.4C30.3,30.6 30.7,29.7 30.9,28.8L31,28L33,27.6L33,26.3L31,26L30.9,25.3C30.7,24.4 30.3,23.5 29.8,22.7L29.4,22.1L30.6,20.4L29.7,19.5L28,20.7L27.4,20.3C26.6,19.8 25.7,19.4 24.8,19.2L24,19L23.6,17L22.3,17L22,19L21.3,19.1C20.4,19.3 19.5,19.7 18.7,20.2L18.1,20.6L16.4,19.4L15.5,20.3L16.7,22L16.3,22.6C15.8,23.4 15.4,24.3 15.2,25.2L15,26L13,26.4L13,27.7L15,28.1L15.1,28.8C15.3,29.7 15.7,30.6 16.2,31.4L16.6,32L15.4,33.7L16.3,34.6L18.1,33.4ZM23,32C20.2,32 18,29.8 18,27C18,24.2 20.2,22 23,22C25.8,22 28,24.2 28,27C28,29.8 25.8,32 23,32ZM23,24C21.3,24 20,25.3 20,27C20,28.7 21.3,30 23,30C24.7,30 26,28.7 26,27C26,25.3 24.7,24 23,24ZM44,8L44,3C44,2.4 43.6,2 43,2L3,2C2.4,2 2,2.4 2,3L2,8L44,8ZM5,6.5C4.2,6.5 3.5,5.8 3.5,5C3.5,4.2 4.2,3.5 5,3.5C5.8,3.5 6.5,4.2 6.5,5C6.5,5.8 5.8,6.5 5,6.5ZM9,6.5C8.2,6.5 7.5,5.8 7.5,5C7.5,4.2 8.2,3.5 9,3.5C9.8,3.5 10.5,4.2 10.5,5C10.5,5.8 9.8,6.5 9,6.5ZM13,6.5C12.2,6.5 11.5,5.8 11.5,5C11.5,4.2 12.2,3.5 13,3.5C13.8,3.5 14.5,4.2 14.5,5C14.5,5.8 13.8,6.5 13,6.5ZM5,4.5C4.7,4.5 4.5,4.7 4.5,5C4.5,5.3 4.7,5.5 5,5.5C5.3,5.5 5.5,5.3 5.5,5C5.5,4.7 5.3,4.5 5,4.5ZM9,4.5C8.7,4.5 8.5,4.7 8.5,5C8.5,5.3 8.7,5.5 9,5.5C9.3,5.5 9.5,5.3 9.5,5C9.5,4.7 9.3,4.5 9,4.5ZM13,4.5C12.7,4.5 12.5,4.7 12.5,5C12.5,5.3 12.7,5.5 13,5.5C13.3,5.5 13.5,5.3 13.5,5C13.5,4.7 13.3,4.5 13,4.5Z" style="fill:url(#_Linear1);"/>
    <defs>
        <linearGradient id="_Linear1" x1="0" y1="0" x2="1" y2="0" gradientUnits="userSpaceOnUse" gradientTransform="matrix(46,-46,46,46,0,46)"><stop offset="0" style="stop-color:rgb(157,77,241);stop-opacity:1"/><stop offset="1" style="stop-color:rgb(0,211,194);stop-opacity:1"/></linearGradient>
    </defs>
</svg>
