<svg clip-rule="evenodd" fill-rule="evenodd" stroke-linejoin="round" stroke-miterlimit="2" viewBox="0 0 47 47" xmlns="http://www.w3.org/2000/svg" xmlns:xlink="http://www.w3.org/1999/xlink"><linearGradient id="a" gradientTransform="matrix(47 -47 47 47 .5 47.5)" gradientUnits="userSpaceOnUse" x1="0" x2="1" y1="0" y2="0"><stop offset="0" stop-color="#2ca9b7"/><stop offset="1" stop-color="#1b648f"/></linearGradient><g fill="url(#a)" fill-rule="nonzero" transform="translate(-.5 -.5)"><path d="m24 35c-6.1 0-11-4.9-11-11s4.9-11 11-11c4.4 0 8.3 2.6 10.1 6.6l-1.8.8c-1.5-3.3-4.7-5.4-8.3-5.4-5 0-9 4-9 9s4 9 9 9c4.1 0 7.6-2.7 8.7-6.7l1.9.5c-1.3 4.8-5.6 8.2-10.6 8.2z"/><path d="m34 27.2c-2.2 0-4-1.8-4-4.1s1.8-4.1 4-4.1 4 1.8 4 4.1-1.8 4.1-4 4.1zm0-6.2c-1.1 0-2 .9-2 2.1s.9 2.1 2 2.1 2-.9 2-2.1-.9-2.1-2-2.1z"/><path d="m7 27c-2.2 0-4-1.8-4-4s1.8-4 4-4 4 1.8 4 4-1.8 4-4 4zm0-6c-1.1 0-2 .9-2 2s.9 2 2 2 2-.9 2-2-.9-2-2-2z"/><path d="m13 41c-2.2 0-4-1.8-4-4s1.8-4 4-4 4 1.8 4 4-1.8 4-4 4zm0-6c-1.1 0-2 .9-2 2s.9 2 2 2 2-.9 2-2-.9-2-2-2z"/><path d="m39 45c-2.2 0-4-1.8-4-4s1.8-4 4-4 4 1.8 4 4-1.8 4-4 4zm0-6c-1.1 0-2 .9-2 2s.9 2 2 2 2-.9 2-2-.9-2-2-2z"/><path d="m39 11c-2.2 0-4-1.8-4-4s1.8-4 4-4 4 1.8 4 4-1.8 4-4 4zm0-6c-1.1 0-2 .9-2 2s.9 2 2 2 2-.9 2-2-.9-2-2-2z"/><path d="m8 12c-2.2 0-4-1.8-4-4s1.8-4 4-4 4 1.8 4 4-1.8 4-4 4zm0-6c-1.1 0-2 .9-2 2s.9 2 2 2 2-.9 2-2-.9-2-2-2z"/><path d="m24 42c-3.2 0-6.3-.8-9.1-2.5l1-1.7c2.4 1.4 5.2 2.2 8.1 2.2 8.8 0 16-7.2 16-16s-7.2-16-16-16c-7.4 0-13.8 5-15.6 12.2l-1.9-.5c2-8 9.2-13.7 17.5-13.7 9.9 0 18 8.1 18 18s-8.1 18-18 18z"/><path d="m10.2 35.5c-2.2-2.7-3.6-5.9-4-9.3l2-.2c.4 3 1.6 5.9 3.6 8.2z"/><path d="m24 47.5c-13 0-23.5-10.5-23.5-23.5 0-5.3 1.7-10.3 5-14.4l1.5 1.2c-3 3.8-4.5 8.4-4.5 13.2 0 11.9 9.6 21.5 21.5 21.5 4.3 0 8.4-1.3 12-3.6l1.1 1.7c-3.9 2.5-8.4 3.9-13.1 3.9z"/><path d="m41.7 39.4-1.5-1.3c3.4-3.9 5.3-8.9 5.3-14.1s-1.9-10.2-5.3-14.1l1.5-1.3c3.7 4.3 5.8 9.8 5.8 15.4 0 5.7-2 11.1-5.8 15.4z"/><path d="m10.8 7-1.2-1.6c4.2-3.2 9.1-4.9 14.4-4.9 4.7 0 9.2 1.4 13.1 4l-1.1 1.7c-3.5-2.4-7.7-3.7-12-3.7-4.8 0-9.4 1.6-13.2 4.5z"/></g></svg>