<?xml version="1.0" encoding="UTF-8" standalone="no"?>
<!DOCTYPE svg PUBLIC "-//W3C//DTD SVG 1.1//EN" "http://www.w3.org/Graphics/SVG/1.1/DTD/svg11.dtd">
<svg width="100%" height="100%" viewBox="0 0 22 20" version="1.1" xmlns="http://www.w3.org/2000/svg" xmlns:xlink="http://www.w3.org/1999/xlink" xml:space="preserve" xmlns:serif="http://www.serif.com/" style="fill-rule:evenodd;clip-rule:evenodd;stroke-linecap:round;stroke-linejoin:round;">
    <g transform="matrix(1,0,0,1,-13.5,-13.8095)">
        <g transform="matrix(1,0,0,1,12.5,11.8095)">
            <g transform="matrix(1,0,0,1,1,0)">
                <path d="M21,12L21,19C21,20.097 20.097,21 19,21L5,21C3.903,21 3,20.097 3,19L3,5C3,3.903 3.903,3 5,3L16,3" style="fill:none;stroke:rgb(122,130,148);stroke-width:2px;"/>
            </g>
        </g>
        <g transform="matrix(1,0,0,1,12.5,11.8095)">
            <g transform="matrix(1,0,0,-1,1,24)">
                <path d="M21,12L21,19C21,20.097 20.097,21 19,21L5,21C3.903,21 3,20.097 3,19L3,5C3,3.903 3.903,3 5,3L16,3" style="fill:none;stroke:rgb(122,130,148);stroke-width:2px;"/>
            </g>
        </g>
        <g transform="matrix(1,0,0,1,12.5,11.8095)">
            <g transform="matrix(1,0,0,1,0,7)">
                <g transform="matrix(1,0,0,1,-12.5,-11.8095)">
                    <rect x="14" y="19" width="5" height="4" style="fill:white;"/>
                </g>
                <g transform="matrix(1.33333,0,0,1.33333,-6,-1)">
                    <path d="M9,7.205C9,6.54 8.46,6 7.795,6L7.205,6C6.54,6 6,6.54 6,7.205L6,7.795C6,8.46 6.54,9 7.205,9L7.795,9C8.46,9 9,8.46 9,7.795L9,7.205Z" style="fill:none;stroke:rgb(122,130,148);stroke-width:1.5px;stroke-miterlimit:1.5;"/>
                </g>
            </g>
        </g>
        <g transform="matrix(1,0,0,1,12.5,11.8095)">
            <g transform="matrix(1,0,0,1,0,-1)">
                <g transform="matrix(1,0,0,1,-12.5,-11.8095)">
                    <rect x="14" y="19" width="5" height="4" style="fill:white;"/>
                </g>
                <g transform="matrix(1.33333,0,0,1.33333,-6,-1)">
                    <path d="M9,7.2C9,6.538 8.462,6 7.8,6L7.2,6C6.538,6 6,6.538 6,7.2L6,7.8C6,8.462 6.538,9 7.2,9L7.8,9C8.462,9 9,8.462 9,7.8L9,7.2Z" style="fill:none;stroke:rgb(122,130,148);stroke-width:1.5px;stroke-miterlimit:1.5;"/>
                </g>
            </g>
        </g>
        <g transform="matrix(1,0,0,1,12.5,11.8095)">
            <g transform="matrix(0.8,0,0,0.8,-8.1,-7.80952)">
                <circle cx="27" cy="25" r="5" style="fill:none;stroke:rgb(122,130,148);stroke-width:2.5px;stroke-miterlimit:1.5;"/>
            </g>
        </g>
    </g>
</svg>
