<?xml version="1.0" encoding="UTF-8" standalone="no"?>
<!DOCTYPE svg PUBLIC "-//W3C//DTD SVG 1.1//EN" "http://www.w3.org/Graphics/SVG/1.1/DTD/svg11.dtd">
<svg width="100%" height="100%" viewBox="0 0 22 20" version="1.1" xmlns="http://www.w3.org/2000/svg" xmlns:xlink="http://www.w3.org/1999/xlink" xml:space="preserve" xmlns:serif="http://www.serif.com/" style="fill-rule:evenodd;clip-rule:evenodd;stroke-linecap:round;stroke-linejoin:round;">
    <g transform="matrix(1,0,0,1,-13.5,-13.8095)">
        <g transform="matrix(1,0,0,1,12.5,11.8095)">
            <g transform="matrix(1,0,0,1,1,0)">
                <path d="M21,12L21,19C21,20.097 20.097,21 19,21L5,21C3.903,21 3,20.097 3,19L3,5C3,3.903 3.903,3 5,3L16,3" style="fill:none;stroke:rgb(122,130,148);stroke-width:2px;"/>
            </g>
        </g>
        <g transform="matrix(1,0,0,1,12.5,11.8095)">
            <g transform="matrix(1,0,0,-1,1,24)">
                <path d="M21,12L21,19C21,20.097 20.097,21 19,21L5,21C3.903,21 3,20.097 3,19L3,5C3,3.903 3.903,3 5,3L16,3" style="fill:none;stroke:rgb(122,130,148);stroke-width:2px;"/>
            </g>
        </g>
        <g transform="matrix(1,0,0,1,12.5,11.8095)">
            <g transform="matrix(1,0,0,1,0,7)">
                <g transform="matrix(1,0,0,1,-12.5,-11.8095)">
                    <rect x="14" y="19" width="5" height="4" style="fill:white;"/>
                </g>
                <g transform="matrix(1.33333,0,0,1.33333,-6,-1)">
                    <path d="M9,6.75C9,6.336 8.664,6 8.25,6L6.75,6C6.336,6 6,6.336 6,6.75L6,8.25C6,8.664 6.336,9 6.75,9L8.25,9C8.664,9 9,8.664 9,8.25L9,6.75Z" style="fill:none;stroke:rgb(122,130,148);stroke-width:1.5px;stroke-miterlimit:1.5;"/>
                </g>
            </g>
        </g>
        <g transform="matrix(1,0,0,1,12.5,11.8095)">
            <g transform="matrix(1,0,0,1,0,-1)">
                <g transform="matrix(1,0,0,1,-12.5,-11.8095)">
                    <rect x="14" y="19" width="5" height="4" style="fill:white;"/>
                </g>
                <g transform="matrix(1.33333,0,0,1.33333,-6,-1)">
                    <path d="M9,6.75C9,6.336 8.664,6 8.25,6L6.75,6C6.336,6 6,6.336 6,6.75L6,8.25C6,8.664 6.336,9 6.75,9L8.25,9C8.664,9 9,8.664 9,8.25L9,6.75Z" style="fill:none;stroke:rgb(122,130,148);stroke-width:1.5px;stroke-miterlimit:1.5;"/>
                </g>
            </g>
        </g>
        <g transform="matrix(1,0,0,1,12.5,11.8095)">
            <g transform="matrix(1,0,0,1,-13.5,-12.8095)">
                <circle cx="27" cy="25" r="5" style="fill:none;stroke:rgb(122,130,148);stroke-width:2px;stroke-miterlimit:1.5;"/>
            </g>
        </g>
    </g>
</svg>
