<?xml version="1.0" encoding="UTF-8" standalone="no"?>
<!DOCTYPE svg PUBLIC "-//W3C//DTD SVG 1.1//EN" "http://www.w3.org/Graphics/SVG/1.1/DTD/svg11.dtd">
<svg width="100%" height="100%" viewBox="0 0 39 36" version="1.1" xmlns="http://www.w3.org/2000/svg" xmlns:xlink="http://www.w3.org/1999/xlink" xml:space="preserve" xmlns:serif="http://www.serif.com/" style="fill-rule:evenodd;clip-rule:evenodd;stroke-linejoin:round;stroke-miterlimit:2;">
    <g transform="matrix(1,0,0,1,-3,-6)">
        <path d="M3,15C3,13.344 4.344,12 6,12L6,9C6,7.344 7.344,6 9,6L39,6C40.659,6 42,7.344 42,9L42,39C42,40.659 40.659,42 39,42L9,42C7.344,42 6,40.659 6,39L6,36C4.344,36 3,34.659 3,33L3,30C3,28.344 4.344,27 6,27L6,21C4.344,21 3,19.659 3,18L3,15ZM36,9L12,9C10.344,9 9,10.344 9,12C10.656,12 12,13.344 12,15L12,18C12,19.659 10.656,21 9,21L9,27C10.656,27 12,28.344 12,30L12,33C12,34.659 10.656,36 9,36C9,37.659 10.344,39 12,39L36,39C37.659,39 39,37.659 39,36L39,12C39,10.344 37.659,9 36,9ZM24,33C19.029,33 15,28.971 15,24C15,19.029 19.029,15 24,15C28.968,15 33,19.029 33,24C33,28.971 28.968,33 24,33ZM24,18C20.688,18 18,20.688 18,24C18,27.312 20.688,30 24,30C27.312,30 30,27.312 30,24C30,20.688 27.312,18 24,18ZM7.5,18C8.328,18 9,17.328 9,16.5C9,15.672 8.328,15 7.5,15C6.672,15 6,15.672 6,16.5C6,17.328 6.672,18 7.5,18ZM7.5,30C6.672,30 6,30.672 6,31.5C6,32.328 6.672,33 7.5,33C8.328,33 9,32.328 9,31.5C9,30.672 8.328,30 7.5,30Z" style="fill:rgb(122,130,148);"/>
    </g>
</svg>
